<?xml version="1.0" encoding="utf-8"?>
<!-- Generator: Adobe Illustrator 26.3.1, SVG Export Plug-In . SVG Version: 6.00 Build 0)  -->
<svg version="1.1" id="Camada_1" xmlns="http://www.w3.org/2000/svg" xmlns:xlink="http://www.w3.org/1999/xlink" x="0px" y="0px"
	 viewBox="0 0 547.5 514.7" style="enable-background:new 0 0 547.5 514.7;" xml:space="preserve">
<style type="text/css">
	.st0{fill:none;}
	.st1{fill-rule:evenodd;clip-rule:evenodd;fill:#D41124;}
	.st2{fill-rule:evenodd;clip-rule:evenodd;fill:#373873;}
	.st3{fill-rule:evenodd;clip-rule:evenodd;fill:#2A65A3;}
	.st4{fill:#E9CA34;}
</style>
<path class="st0" d="M143,0.1C-11.9,6.4-131.3,258.4,287.5,514.7c12.5-53,43.7-93.6,87.9-125.4c102.7-80,215-168.2,155.7-297.3
	c-19.5-32.8-51.2-51.1-88.8-58.6c-74.1-14.5-128.9,51.5-156.2,50.8C282.2,84,207.6-2.5,143,0.1z"/>
<path class="st1" d="M143,0.1C-11.9,6.4-131.3,258.4,287.5,514.7c12.5-53,43.7-93.6,87.9-125.4c102.7-80,215-168.2,155.7-297.3
	c-19.5-32.8-51.2-51.1-88.8-58.6c-74.1-14.5-128.9,51.5-156.2,50.8C282.2,84,207.6-2.5,143,0.1z"/>
<path class="st2" d="M384.1,219.1c-19.7,4.6-51.4-30.2-83.6-66.2c-53.1-52.1-106.4-58.7-159.5-48.9c-11.8,17.9-14.6,34.8-8.4,50.7
	c3.2,8.3,12.4,14.1,17.1,24.2c-9.2,8.9-11.3,20.2-6.5,33.7c5.4,22.4,10.8,44.8,16.3,67.3c-6.4,32.1,2.9,55,22.7,71.6
	c-10.8,8.9-11.5,20.1-2.1,33.7H243c8.7,10.7,17.4,20,26,26c2.9-0.4,5.8-0.7,8.7-1.1c0.7,2.5,1.5,5,2.2,7.6
	c8.6-9.4,17.3-18.8,26-28.3c-2.5-10.1-5.1-20.3-7.6-30.4c17.1-41.7,41.4-80.7,66.3-119.4c6.6-0.7,13.1-1.4,19.5-2.1V219.1z"/>
<path class="st3" d="M384.1,213.3c-19.7,4.6-51.4-30.1-83.5-66.1c-53.1-52-106.2-58.6-159.4-48.8c-11.7,17.8-14.6,34.7-8.4,50.7
	c3.3,8.3,12.4,14,17.1,24.1c-9.1,8.9-11.3,20.1-6.6,33.7c5.5,22.3,10.9,44.7,16.3,67.2c-6.4,32,2.8,54.9,22.7,71.5
	c-10.7,8.9-11.5,20-2.2,33.6h62.9c8.6,10.6,17.3,19.9,26,26c2.9-0.3,5.8-0.7,8.6-1c0.8,2.5,1.5,5,2.2,7.6c8.7-9.4,17.3-18.8,26-28.2
	c-2.5-10.1-5.1-20.2-7.6-30.3c17.1-41.9,41.4-80.7,66.2-119.3c6.5-0.8,13-1.5,19.5-2.2V213.3z"/>
<path class="st4" d="M326.8,288.2c-1,0-2,0.3-2.8,0.9l-0.2,0.2c-0.2,0.1-0.3,0.3-0.4,0.5c-0.3-0.4-0.4-0.9-0.6-1.4
	c-0.4-1.6-0.9-4.8-0.9-10.8c0-5.5,0.4-11,1.3-16.4c0.7-5.3,1.8-10.5,3.3-15.6c0.4-0.4,0.7-0.8,0.9-1.3c0.3-0.7,0.5-1.4,0.5-2.2
	c-0.1-2.4-1.4-4.6-3.4-5.8c-2-1.5-4.5-2.2-7-2.2c-1.4-0.1-2.8,0.2-4.1,0.8c-0.8,0.4-1.5,1.1-1.9,1.9c-0.2-0.1-0.3-0.3-0.4-0.4
	c-1.5-1.6-3.3-2.8-5.3-3.7c-1.3-1.1-2.8-2.1-4.3-2.9c-1.8-0.9-3.6-1.6-5.5-2l-0.7-0.1c-6.3,0-12.5,4.7-18.7,14.3
	c-5.9,8.6-9,18.8-9.1,29.2c0,9,2.2,16.6,6.6,22.9c4.6,6.4,10.4,9.7,17.1,9.7c4.9-0.1,9.5-2.1,12.9-5.6c2.7-2.8,5-5.9,6.9-9.3
	c0.7,1.7,1.8,3.3,3,4.6c2.5,3,6.2,4.7,10.1,4.6c1.8,0,3.6-0.5,5.1-1.4c1.5-0.9,2.5-2.6,2.5-4.4c0-1.3-0.5-2.5-1.5-3.3
	C329.1,288.6,327.9,288.2,326.8,288.2z M292.4,295.7c-1.7,0-4.2-0.4-6.4-4.2c-1.9-3.3-2.8-7.9-2.8-13.7c-0.1-9.1,2.1-18,6.5-26
	c4-7.1,8.2-10.7,12.3-10.7c1.8,0.1,3.6,1,4.6,2.5c1.6,1.8,2.4,4.2,2.4,6.6c-0.3,11.4-2.2,22.7-5.8,33.5c-1.5,4.2-3.3,7.3-5.2,9.3
	C296.6,294.7,294.6,295.7,292.4,295.7L292.4,295.7z"/>
<path class="st4" d="M207.9,288.3c-0.8-1-2.1-1.6-3.4-1.6h-0.4c-0.9,0.1-1.7,0.4-2.4,1l-0.2,0.2c-0.3,0.3-0.6,0.7-0.8,1.1
	c-2-0.1-4.5-3-6.8-8c-2.5-5.6-4.7-13.3-6.4-22.9c4.1-0.2,8.3-0.7,12.3-1.6c2.1-0.6,7.2-1.9,7.2-5.9c0.1-1.3-0.5-2.5-1.6-3.3
	c-0.9-0.6-1.9-0.9-3-0.8c-0.6,0-4.2,0.3-4.5,0.3c-2.8,0.2-5.3,0.3-7.7,0.3c-1.2,0-2.2,0-3.4,0h-0.4c-0.1-2.2-0.3-4.4-0.4-6.7V240
	c0-3.1-0.1-6.4-0.1-9.8c-0.1-8.8,0.3-17.6,1.1-26.4c0.5-5.9,1.5-11.7,3.1-17.3c0.2-0.3,0.4-0.7,0.5-1c0.3-0.6,0.4-1.2,0.4-1.9
	c0-3.2-2.9-5.5-5.1-6.9c-2.6-1.9-5.7-3-8.9-3.1c-2.5,0-5,0.7-7.2,2c-2.5,1.5-3.8,3.5-3.8,5.8c0,0.5,0.1,1,0.3,1.5l-6.2,22.9
	c-0.8,2.6-1.5,5.2-2.2,7.9c-1.2,4.4-2.4,8.9-3.8,13.6c-1.6,5.8-3.4,11.7-5.2,17.8l-4.4,3.4c-4.5,0.2-7.9,0.4-11,0.4
	c-2.1,0-4.2-0.3-6.2-0.9c-0.6-0.2-1.2-0.3-1.8-0.3c-1-0.1-2.1,0.2-2.9,0.8l-0.3,0.3c-0.8,0.8-1.3,1.9-1.2,3c0,4.8,6.6,6.1,16.6,6.6
	c2.3,0.1,4.4,0.2,6.1,0.3c-4.5,12.3-10.5,21.6-17.6,27.6c-7.7,6.4-17.4,9.7-28.9,9.7c-9,0-16.1-2.2-21.8-6.7
	c-5.4-4.3-8.2-9.8-8.2-16.4c-0.1-4,0.4-7.9,1.5-11.7c0.7-2.5,2-4.7,3.8-6.6c1.3-0.5,2.4-1.2,3.4-2.1c1.2-1.1,1.8-2.7,1.8-4.3
	c0-1.3-0.5-2.5-1.4-3.4c-0.9-0.8-2-1.3-3.2-1.2c-4,0-7.7,3-10.8,8.9c-2.8,5.6-4.3,11.9-4.2,18.2c0,10.8,3.9,19.9,11.6,26.9
	c7.7,7,17.6,10.5,29.5,10.5c13.2,0,24.3-4.1,33.2-12.3c8.3-7.8,15.2-20.1,20.8-36.5h1.6h1.9c2.4,0.1,4.3,0.1,5.6,0.1s3.2,0,5.5-0.1
	h1.7h1c1.5,9.6,5.2,18.7,10.7,26.6c6,8,12.3,12.1,19,12.1c2,0.1,3.9-0.4,5.6-1.4c1.8-0.9,3-2.7,3-4.7c0-1-0.3-2-0.8-3L207.9,288.3z
	 M170.8,240.3v1.8c0.1,2.6,0.4,5.2,0.5,7.9l-11.8,0.2l0.4-1.4c1.4-5,3-11,5-18.2c3-10.9,5.2-18.5,6.9-23.9
	c-0.8,8.9-1.2,17.5-1.2,25.8C170.6,234.9,170.7,237.5,170.8,240.3L170.8,240.3z"/>
<path class="st4" d="M256.5,267.1h-0.3c-0.8,0.1-1.6,0.4-2.2,0.9c-1-4.4-2.4-8.7-4-12.9c-1.9-4.4-4.2-8.7-7-12.6
	c2.9-12.2,5-21.5,6.3-28.3s2.5-13.8,3.6-21c0.1-0.1,0.1-0.3,0.2-0.4c0.3-0.4,0.5-0.9,0.6-1.4c0.1-0.4,0.1-0.8,0.1-1.2
	c0-2.2-1.3-4.2-3.9-6.3c-1.9-1.6-4.3-2.6-6.8-2.7c-1.4,0-2.8,0.5-3.9,1.4c-1.1,0.8-2,2-2.5,3.2l-0.3,0.8l0.1,0.8
	c0.2,0.7,0.3,1.4,0.3,2.1c0,0.6,0,1,0,1.6c-0.1,6-0.7,12-1.7,18c-1,7.4-2.6,16.1-4.2,24.6c-0.9-0.2-1.7-0.3-2.6-0.3
	c-2.8-0.1-5.6,0.9-7.6,2.9c-1.8,1.8-2.7,4.4-2.7,7.7c0.1,3.1,0.8,6.2,2.1,9.1c1.3,3.1,2.9,6,4.9,8.6c-1.9,8.5-3.2,15.9-4,22.6
	c-1,6.8-1.4,13.7-1.5,20.6c0,9.4,1.4,16.9,4.3,22.4c3.2,5.7,7.8,8.6,13.7,8.6c6.7,0,11.8-3.8,15.1-11.4c3.1-6.9,4.6-16.7,4.6-30.1
	c0-3.1-0.2-6.1-0.4-9.1c-0.2-2.2-0.5-4.4-0.7-6.5c1.1-0.4,2.2-0.9,3.1-1.5c1.7-1.1,2.7-3,2.7-5c0-1.4-0.5-2.8-1.5-3.8
	C259.2,267.6,257.9,267.1,256.5,267.1z M239.1,325.6c-1.7,0-2.7-2.4-3.4-4.4c-1.2-3.8-1.9-9.9-1.9-18c0-4.8,0.3-9.6,0.9-14.4
	c0.5-4.1,1.1-8.9,2-14.3c1.1,0.8,2.3,1.5,3.6,2.1c2.3,1.1,4.8,2,7.3,2.6c0.2,1.1,0.3,2.1,0.3,3.2c0.2,1.6,0.2,3.5,0.2,6.3
	c0,11.5-1.1,20.9-3.1,28C243.3,322.4,241.1,325.6,239.1,325.6z M227.3,243.4c0-0.7,0.1-1.5,0.5-2.1c0.3-0.2,0.6-0.2,0.9-0.2h0.1
	l-1,5.1C227.4,245.2,227.3,244.3,227.3,243.4z M243.4,268.9c-1.9-1.1-3.6-2.4-5.1-3.9l1.8-9.1c1,1.8,2,3.7,2.8,5.7
	c1.1,2.7,2.1,5.5,2.7,8.4C244.9,269.7,244.2,269.3,243.4,268.9L243.4,268.9z"/>
<path class="st4" d="M451.4,290.3c-0.1-1-0.6-2-1.3-2.7c-0.8-0.7-1.8-1.1-2.9-1.1c-1.5,0-2.9,0.8-3.6,2.2c-0.2-0.3-0.3-0.7-0.5-1
	c-0.3-1-1-3.7-1-10.3c0-7.9,0.5-15.8,1.6-23.7c0.4-3.2,1-6.3,1.9-9.3l0.7-0.2l3.9-2.5v-0.3c0-2-1-3.9-3-5.6
	c-1.6-1.4-3.6-2.2-5.6-2.2c-1.8-0.1-3.5,0.2-5.2,0.8c-1.6,0.5-2.9,1.6-3.8,3l-0.4,0.6v1.7c0,0-1.7,1.3-1.6,1.9
	c0,0.2,0.1,0.5,0.1,0.7c0,0.2,1.5,0.8,1.5,0.8v0.5l-1.3,0.4c0,4.1-0.4,9.3-1.1,15.7c-0.7,5.8-1.7,11.6-3,17.3
	c-0.8,3.9-2.2,7.7-4.1,11.3c-1.1,1.8-2.3,2.7-3.4,2.7s-1.8-2.2-2-2.9c-0.9-2.9-1.4-7.2-1.4-12.8c0-6.7,0.5-13.4,1.4-20
	c1.2-7.5,2.2-10.4,2.8-11.6v-0.6v-0.7c0,0-0.6-3.3-2.5-4.9c-1.8-1.6-4.1-2.4-6.5-2.4c-1.7-0.1-3.4,0.3-4.9,1.2
	c-1.6,0.8-2.6,2.5-2.6,4.3l0.2,0.9c0,0.5,0.1,0.9,0.1,1.4c0.1,1.1,0.2,2.1,0.1,3.2c0,1.2-0.5,5.1-1.1,10.5c-0.7,5.2-1,10.4-1,15.5
	c0,8.2,1.2,14.5,3.8,19.5c2.9,5.2,7,7.9,12.1,7.9c4,0,7.5-2,10.6-5.9c1.4-1.8,2.5-3.7,3.4-5.7c0.5,1.3,1.1,2.6,1.8,3.8
	c2.4,3.9,5.6,5.9,9.5,5.9c2,0.1,4-0.6,5.7-1.8c1.6-1.2,2.5-3,2.5-5L451.4,290.3z"/>
<path class="st4" d="M389.1,227.6c-1.8-1-3.8-1.5-5.8-1.4c-1.8-0.1-3.5,0.4-5.1,1.2c-2,1.1-3,3.5-2.4,5.7c-1.6-1-3.4-1.9-5.2-2.6
	c-1.2-1.1-2.6-2.1-4.1-2.9c-1.7-0.8-3.6-1.2-5.4-1.3l-0.4,0l-0.4,0.1c-6.4,1.4-11.8,6-16.5,14c-4.4,7.8-6.7,16.6-6.6,25.5
	c0,9.4,1.9,16.8,5.8,22.6c4.1,6.1,9.5,9.2,16.3,9.2c4.9,0,9.5-2.1,12.9-5.7c1.6-1.8,3.1-3.7,4.3-5.8c0.2,2.8,0.4,5.3,0.5,7.4v0.2
	c0.2,3.7,0.3,7.2,0.3,11.1c0,6.4-1.6,11.2-4.9,14.8s-7.5,5.2-13.3,5.2c-4.5,0-8-0.6-10.5-1.9c-2.7-1.3-3-2.5-3-3.2l0.2-0.9
	c0-0.2,0.1-0.5,0.1-0.7c0-1.1-0.5-2.2-1.3-3c-0.8-0.8-1.9-1.2-3-1.1c-1.4,0-2.8,0.6-3.7,1.7c-0.8,1.1-1.2,2.5-1.2,3.9
	c0,3.1,1.3,7.7,7.5,11.5c4.6,3,10.2,4.5,17.2,4.5c9.6,0,17.2-2.8,22.6-8.4c5.2-5.6,7.8-13.5,7.8-23.8c0-2.3-0.5-8.4-1.3-16.3
	c-0.9-8-1.3-15.9-1.4-23.9c0-9,0.2-14.8,0.5-18.3c0.2-3.1,0.8-6.2,1.6-9.1c0.3-0.4,0.5-0.8,0.7-1.3c0.3-0.7,0.5-1.5,0.5-2.3
	C392.5,230.5,391.4,228.9,389.1,227.6z M360.4,290c-2.8,0-4.8-1.4-6.5-4.3c-1.9-3.2-2.8-8.1-2.8-14.4c-0.2-8.2,1.7-16.3,5.5-23.6
	c3.2-6.1,6.5-9.5,9.3-9.5c2.6-0.1,5.1,1.2,6.5,3.5c1.9,2.5,2.7,6.4,2.7,11.3c0,11.4-1.6,20.7-4.7,27.6
	C367.6,286.9,364.3,290,360.4,290z"/>
</svg>
