<?xml version="1.0" encoding="utf-8"?>
<!-- Generator: Adobe Illustrator 24.1.2, SVG Export Plug-In . SVG Version: 6.00 Build 0)  -->
<svg version="1.1" id="Camada_1" xmlns="http://www.w3.org/2000/svg" xmlns:xlink="http://www.w3.org/1999/xlink" x="0px" y="0px"
	 viewBox="0 0 240 132.3" style="enable-background:new 0 0 240 132.3;" xml:space="preserve">
<style type="text/css">
	.st0{fill:#A6C854;}
	.st1{fill:#1B4A34;}
	.st2{fill:#FEFEFE;}
</style>
<g>
	<g id="Camada_2_1_">
		<g id="Layer_1">
			<path class="st0" d="M50.5,37.3c0,0-12.6,12.4,4.5,26.5C69.7,76,96.9,76.9,104,92c1.1,2.4,5.1,1.9,5.8-1.4
				c1.8-9.2-3.2-18.5-24.6-25.6S52.5,50.9,50.5,37.3z"/>
			<path class="st0" d="M92.9,0c0,0-0.6,3.7-17.4,8c-9.8,2.5-15.7,4.9-20.2,10.6s-4.6,11.9-4.6,11.9s4.4-10.4,21.6-12.7
				C91.5,15.1,96.2,9.9,92.9,0z"/>
			<path class="st0" d="M104.6,95.5c0,0-5.7,3.1-25.5,9.4c-15.9,5-18.3,10.6-19.5,14.3c-2.6,8.1-0.5,13.1-0.5,13.1
				s6.5-10.8,24.5-14.9C103.9,112.7,107.9,107.1,104.6,95.5z"/>
			<path class="st1" d="M0,79.7h13.4c0,2.4,1.1,4.6,3,6c1.9,1.3,4.5,1.9,7.8,1.9c2.1,0.1,4.2-0.4,6.1-1.4c1.5-0.7,2.4-2.1,2.4-3.7
				c0-2.4-2.8-4.1-8.3-5.3c-1.8-0.3-3.6-0.7-5.3-1.2c-7-1.7-11.6-3.7-14-6.1C2.5,67.5,1,64,1.2,60.4C1.1,55.6,3.2,51,6.9,48
				c3.9-3,9.1-4.5,15.4-4.5S34.5,45,38.6,48c3.8,3.2,6,7.9,6.1,12.8h-8.5c-2.4,0.1-4.6-1.2-5.7-3.3L29,55.9
				c-1.9-1.3-4.2-1.9-6.5-1.8c-2.1-0.1-4.1,0.3-6,1.2c-1.1,0.8-1.8,2.2-1.7,3.6c0,2.1,3.4,3.8,10.2,5.3l2.1,0.6l1.7,0.2
				c6.7,1.7,11.3,3.6,13.9,5.9c2.6,2.4,3.9,5.9,3.8,9.4c0,5.8-2.1,10.3-6.3,13.4s-9.9,4.4-17.7,4.4S9.4,96.6,5.7,93.5S0,86.1,0,80.3
				V79.7z"/>
			<path class="st1" d="M49.8,44.7h7.1c3.6-0.1,6.6,2.7,6.7,6.3c0,0.1,0,0.3,0,0.4v45.7H49.8V44.7z"/>
			<path class="st1" d="M112.9,97.1H106c-1.8,0.1-3.5-0.6-4.8-1.9c-1.2-1.3-1.9-3-1.9-4.8V63.6c0-3.2-0.9-5.5-2.8-6.9
				c-1.8-1.4-4.1-2.2-6.4-2.2c-2.3-0.1-4.5,0.7-6.3,2.2c-1.9,1.4-2.8,3.7-2.8,6.9v33.5H67.2V66.3c0-8.9,2.3-14.9,7-17.9
				c4.6-3,10-4.7,15.5-4.9c5.6-0.1,11.1,1.5,15.9,4.5c4.9,3,7.3,9.2,7.3,18.3V97.1z"/>
			<path class="st1" d="M150.6,94.9c-2.7,1.4-5.7,2.4-8.8,2.7c-3.1,0.3-5.8,0.5-8.2,0.5c-4.4,0.1-8.8-1.3-12.4-3.9
				c-3.5-2.5-5.3-6.8-5.3-12.7s1.6-9.4,4.8-11.8S128,65.8,133,65l2.4-0.3l3.2-0.5c5.7-0.8,8.6-2.5,8.6-5.1c0.1-1.9-1.2-3.5-3-3.9
				c-1.8-0.6-3.7-0.9-5.6-0.9c-1.7,0-3.4,0.3-5,0.8c-1.4,0.5-2.6,1.6-3.1,3h-13.2c0.4-4,2.4-7.6,5.5-10.1c3.5-3,8.6-4.5,15.2-4.5
				s12.8,1.2,16.5,3.7c3.7,2.5,5.9,6.7,5.7,11.1v17.9c0,5.2-0.9,9.4-2.8,12.3C155.8,91.2,153.4,93.4,150.6,94.9z M147.4,70.7
				c-2.5,1.1-5,2-7.7,2.5l-4.5,1c-2.4,0.7-4.1,1.5-5.1,2.6c-0.9,1.3-1.4,2.8-1.4,4.3c-0.1,1.8,0.6,3.5,1.8,4.7
				c1.4,1.2,3.3,1.7,5.1,1.6c3.7,0,6.6-1,8.7-3.1s3.1-5,3.1-8.7L147.4,70.7z"/>
			<path class="st1" d="M207.9,97.1h-13.6V63.6c0-3.2-0.9-5.5-2.8-6.9c-1.8-1.4-4.1-2.2-6.4-2.2c-2.3,0-4.6,0.7-6.4,2.2
				c-1.8,1.4-2.7,3.7-2.7,6.9v33.5h-13.8V66.3c0-8.9,2.3-14.9,7-17.9c4.6-3,10-4.7,15.5-4.9c3,0,5.9,0.3,8.8,1
				c2.9,0.6,5.6,2,7.9,3.9c2-1.7,4.4-3,7-3.6c2.7-0.7,5.6-1.2,8.4-1.3c5.6,0,11.1,1.5,15.9,4.5c4.9,3,7.3,9.2,7.3,18.3v30.8h-6.9
				c-3.6,0.1-6.6-2.7-6.7-6.3c0-0.1,0-0.3,0-0.4V63.6c0-3.2-0.9-5.5-2.8-6.9c-1.8-1.4-4.1-2.2-6.4-2.2c-2.3,0-4.6,0.7-6.4,2.2
				c-1.9,1.4-2.9,3.7-2.9,6.9L207.9,97.1L207.9,97.1z"/>
			<path class="st1" d="M68.5,32.1c0,5.5-4.4,9.9-9.9,9.9s-9.9-4.4-9.9-9.9s4.4-9.9,9.9-9.9c0,0,0.1,0,0.1,0c5.4,0,9.8,4.4,9.8,9.8
				C68.5,32,68.5,32.1,68.5,32.1z"/>
			
				<image style="overflow:visible;opacity:0.2;enable-background:new    ;" width="349" height="336" xlink:href="F4A0F3A8.png"  transform="matrix(0.24 0 0 0.24 34.4 25.1)">
			</image>
			<path class="st2" d="M49,32.3c0,0-12.8,12.1,4.7,26s51.9,13.2,52,36.3c7.4-11.7,8.6-25.2-21.1-34.9C64,52.9,51.1,45.6,49,32.3z"
				/>
		</g>
	</g>
</g>
<g>
	<path class="st1" d="M141.5,116c-0.6,0.4-1.5,0.6-2.5,0.6c-1.1,0-2-0.2-2.7-0.5c-0.2-0.1-0.2-0.2-0.2-0.3l0.3-0.7
		c0.1-0.2,0.2-0.2,0.3-0.2c0.6,0.3,1.3,0.4,2.2,0.4c0.7,0,1.2-0.1,1.6-0.3c0.4-0.2,0.6-0.5,0.6-1c0-0.2,0-0.4-0.1-0.6
		c-0.1-0.2-0.3-0.3-0.5-0.5c-0.2-0.1-0.4-0.3-0.6-0.3c-0.2-0.1-0.4-0.2-0.8-0.3c-0.3-0.1-0.6-0.2-0.8-0.3c-0.2-0.1-0.4-0.2-0.7-0.4
		c-0.3-0.2-0.5-0.3-0.6-0.5c-0.1-0.2-0.3-0.4-0.4-0.7c-0.1-0.3-0.2-0.6-0.2-0.9c0-0.8,0.3-1.4,0.8-1.8s1.3-0.6,2.4-0.6
		c0.9,0,1.7,0.1,2.4,0.4c0.2,0.1,0.2,0.2,0.2,0.3l-0.2,0.7c-0.1,0.2-0.2,0.2-0.3,0.1c-0.6-0.2-1.2-0.3-1.8-0.3
		c-0.7,0-1.1,0.1-1.4,0.3c-0.3,0.2-0.5,0.5-0.5,0.9c0,0.3,0.1,0.5,0.2,0.7c0.2,0.2,0.3,0.3,0.6,0.4c0.2,0.1,0.5,0.2,0.9,0.4
		c0,0,0.1,0,0.1,0s0,0,0.1,0c0,0,0.1,0,0.1,0c0.9,0.4,1.5,0.7,1.8,0.9c0.6,0.5,0.9,1.1,0.9,1.9C142.4,114.9,142.1,115.5,141.5,116z"
		/>
	<path class="st1" d="M145.3,108.6c0,0.2-0.1,0.3-0.2,0.3h-0.9c-0.2,0-0.2-0.1-0.2-0.3v-1c0-0.2,0.1-0.2,0.2-0.2h0.9
		c0.2,0,0.2,0.1,0.2,0.2V108.6z M145.3,116.2c0,0.2-0.1,0.2-0.2,0.2h-0.9c-0.2,0-0.2-0.1-0.2-0.2v-6.3c0-0.2,0.1-0.2,0.2-0.2h0.9
		c0.2,0,0.2,0.1,0.2,0.2V116.2z"/>
	<path class="st1" d="M149.1,116.6c-0.9,0-1.6-0.1-2.2-0.4c-0.1-0.1-0.2-0.1-0.2-0.3l0.2-0.6c0-0.2,0.1-0.2,0.3-0.2
		c0.5,0.2,1.1,0.3,1.7,0.3c0.5,0,0.9-0.1,1.1-0.2c0.2-0.1,0.4-0.4,0.4-0.7c0-0.3-0.1-0.5-0.4-0.7c-0.2-0.2-0.6-0.3-1.2-0.5
		c-0.7-0.3-1.2-0.4-1.4-0.6c-0.5-0.3-0.7-0.8-0.8-1.5c0-0.6,0.2-1.1,0.6-1.4s1-0.5,1.8-0.5c0.8,0,1.5,0.1,2.1,0.4
		c0.1,0.1,0.2,0.2,0.2,0.3l-0.2,0.6c0,0.1-0.1,0.2-0.3,0.2c-0.5-0.2-1-0.3-1.6-0.3c-0.5,0-0.8,0.1-1,0.2c-0.2,0.1-0.3,0.3-0.3,0.6
		s0.1,0.5,0.4,0.7c0.2,0.1,0.6,0.3,1.2,0.5c0.7,0.2,1.2,0.5,1.6,0.8s0.5,0.7,0.5,1.3C151.8,116,150.9,116.6,149.1,116.6z"/>
	<path class="st1" d="M154.8,110.9v3.4c0,0.4,0.1,0.7,0.2,0.9s0.4,0.2,0.8,0.2c0,0,0.2,0,0.6-0.1c0.1,0,0.2,0.1,0.2,0.2l0.1,0.6
		c0,0.1,0,0.2-0.2,0.2c-0.3,0.1-0.6,0.2-1,0.2c-0.7,0-1.2-0.2-1.6-0.5s-0.5-0.9-0.5-1.6v-3.6h-0.8c-0.2,0-0.3-0.1-0.3-0.2V110
		c0-0.2,0.1-0.3,0.3-0.3h0.9v-1.6c0-0.2,0.1-0.2,0.2-0.2h0.8c0.2,0,0.3,0.1,0.3,0.2v1.6h1.6c0.2,0,0.3,0.1,0.3,0.3v0.6
		c0,0.2-0.1,0.2-0.3,0.2H154.8z"/>
	<path class="st1" d="M162.9,115.2c0.1-0.1,0.3,0,0.3,0.1l0.2,0.5c0,0.1,0,0.2-0.2,0.3c-0.6,0.3-1.4,0.5-2.2,0.5
		c-1.1,0-2-0.3-2.6-0.9c-0.6-0.6-0.9-1.5-0.9-2.6c0-1.1,0.3-2,0.9-2.6c0.6-0.6,1.4-0.9,2.3-0.9c1,0,1.7,0.3,2.2,0.9
		c0.5,0.6,0.8,1.4,0.8,2.3v0.6c0,0.2-0.1,0.2-0.3,0.2h-4.6c0.1,0.6,0.3,1.1,0.7,1.4c0.4,0.4,0.9,0.5,1.6,0.5
		C161.8,115.6,162.4,115.4,162.9,115.2z M158.9,112.7h3.7v-0.1c0-0.6-0.2-1.1-0.5-1.5c-0.3-0.4-0.7-0.5-1.3-0.5
		C159.6,110.6,158.9,111.3,158.9,112.7z"/>
	<path class="st1" d="M171,116.2c0,0.2-0.1,0.2-0.2,0.2h-0.8c-0.2,0-0.2-0.1-0.2-0.2v-4.1c0-0.5-0.1-0.8-0.3-1.1
		c-0.2-0.2-0.5-0.4-1-0.4c-0.5,0-0.9,0.2-1.2,0.5c-0.3,0.3-0.4,0.7-0.4,1.2v3.8c0,0.2-0.1,0.2-0.2,0.2h-0.8c-0.2,0-0.3-0.1-0.3-0.2
		v-6.3c0-0.2,0.1-0.2,0.3-0.2h0.8c0.2,0,0.3,0.1,0.3,0.2l0,0.8c0.1-0.3,0.4-0.6,0.7-0.8s0.8-0.3,1.4-0.3c1,0,1.7,0.4,2,1.2
		c0.4-0.8,1.2-1.2,2.3-1.2c0.7,0,1.3,0.2,1.7,0.6c0.4,0.4,0.6,1,0.6,1.8v4.3c0,0.2-0.1,0.2-0.2,0.2h-0.8c-0.2,0-0.2-0.1-0.2-0.2v-4
		c0-0.5-0.1-0.8-0.3-1.1c-0.2-0.2-0.5-0.4-1-0.4c-0.5,0-0.9,0.2-1.2,0.5c-0.3,0.3-0.5,0.7-0.5,1.1V116.2z"/>
	<path class="st1" d="M182.7,116.2c0,0.2-0.1,0.2-0.3,0.2h-0.7c-0.1,0-0.2-0.1-0.2-0.2l0-0.8c-0.5,0.8-1.3,1.2-2.4,1.2
		c-0.7,0-1.3-0.2-1.7-0.5s-0.6-0.8-0.6-1.4c0-0.4,0.1-0.7,0.2-1c0.2-0.3,0.4-0.5,0.6-0.7c0.3-0.2,0.6-0.3,1-0.4
		c0.4-0.1,0.8-0.2,1.3-0.2c0.4,0,0.9-0.1,1.5-0.1V112c0-0.5-0.1-0.8-0.4-1c-0.3-0.2-0.7-0.3-1.2-0.3c-0.7,0-1.4,0.1-2,0.4
		c-0.1,0.1-0.2,0-0.3-0.2l-0.2-0.6c0-0.1,0-0.2,0.1-0.3c0.7-0.3,1.6-0.5,2.5-0.5s1.7,0.2,2.1,0.6c0.5,0.4,0.7,1,0.7,1.8V116.2z
		 M181.4,113.3c-0.6,0-1,0-1.3,0.1c-0.3,0-0.7,0.1-1,0.2c-0.3,0.1-0.6,0.2-0.7,0.4c-0.2,0.2-0.2,0.4-0.2,0.7c0,0.3,0.1,0.5,0.3,0.7
		c0.2,0.2,0.5,0.3,1,0.3c0.7,0,1.2-0.2,1.5-0.5s0.5-0.7,0.5-1.2V113.3z"/>
	<path class="st1" d="M195.6,116.2c0,0.2-0.1,0.3-0.3,0.3h-0.9c-0.1,0-0.3-0.1-0.4-0.2l-4.2-6.6v6.5c0,0.2-0.1,0.3-0.2,0.3h-0.9
		c-0.2,0-0.3-0.1-0.3-0.3v-8.6c0-0.2,0.1-0.3,0.3-0.3h0.9c0.2,0,0.3,0.1,0.4,0.2l4.2,6.6v-6.5c0-0.2,0.1-0.3,0.3-0.3h0.9
		c0.2,0,0.3,0.1,0.3,0.2V116.2z"/>
	<path class="st1" d="M203.1,116.2c0,0.2-0.1,0.2-0.3,0.2h-0.7c-0.1,0-0.2-0.1-0.2-0.2l0-0.8c-0.5,0.8-1.3,1.2-2.4,1.2
		c-0.7,0-1.3-0.2-1.7-0.5s-0.6-0.8-0.6-1.4c0-0.4,0.1-0.7,0.2-1c0.2-0.3,0.4-0.5,0.6-0.7c0.3-0.2,0.6-0.3,1-0.4
		c0.4-0.1,0.8-0.2,1.3-0.2c0.4,0,0.9-0.1,1.5-0.1V112c0-0.5-0.1-0.8-0.4-1c-0.3-0.2-0.7-0.3-1.2-0.3c-0.7,0-1.4,0.1-2,0.4
		c-0.1,0.1-0.2,0-0.3-0.2l-0.2-0.6c0-0.1,0-0.2,0.1-0.3c0.7-0.3,1.6-0.5,2.5-0.5s1.7,0.2,2.1,0.6c0.5,0.4,0.7,1,0.7,1.8V116.2z
		 M201.8,113.3c-0.6,0-1,0-1.3,0.1c-0.3,0-0.7,0.1-1,0.2c-0.3,0.1-0.6,0.2-0.7,0.4c-0.2,0.2-0.2,0.4-0.2,0.7c0,0.3,0.1,0.5,0.3,0.7
		c0.2,0.2,0.5,0.3,1,0.3c0.7,0,1.2-0.2,1.5-0.5s0.5-0.7,0.5-1.2V113.3z"/>
	<path class="st1" d="M205.5,110.5c0.6-0.6,1.4-0.9,2.4-0.9c0.8,0,1.4,0.1,1.9,0.4c0.1,0.1,0.2,0.2,0.2,0.3l-0.3,0.6
		c-0.1,0.1-0.2,0.2-0.4,0.1c-0.4-0.2-0.8-0.3-1.3-0.3c-0.7,0-1.2,0.2-1.5,0.6c-0.4,0.4-0.6,1-0.6,1.8c0,0.8,0.2,1.4,0.6,1.8
		c0.4,0.4,0.9,0.6,1.5,0.6c0.5,0,1-0.1,1.5-0.3c0.2-0.1,0.3,0,0.3,0.1l0.2,0.6c0,0.1,0,0.2-0.2,0.3c-0.2,0.1-0.5,0.2-0.8,0.3
		c-0.4,0.1-0.7,0.1-1.1,0.1c-1,0-1.9-0.3-2.5-0.9c-0.6-0.6-0.9-1.5-0.9-2.6C204.6,111.9,204.9,111.1,205.5,110.5z"/>
	<path class="st1" d="M212.9,108.6c0,0.2-0.1,0.3-0.2,0.3h-0.9c-0.2,0-0.2-0.1-0.2-0.3v-1c0-0.2,0.1-0.2,0.2-0.2h0.9
		c0.2,0,0.2,0.1,0.2,0.2V108.6z M212.9,116.2c0,0.2-0.1,0.2-0.2,0.2h-0.9c-0.2,0-0.2-0.1-0.2-0.2v-6.3c0-0.2,0.1-0.2,0.2-0.2h0.9
		c0.2,0,0.2,0.1,0.2,0.2V116.2z"/>
	<path class="st1" d="M215.4,115.7c-0.6-0.6-0.9-1.5-0.9-2.6c0-1.1,0.3-2,0.9-2.6c0.6-0.6,1.4-0.9,2.4-0.9c1,0,1.8,0.3,2.4,0.9
		c0.6,0.6,0.9,1.5,0.9,2.6c0,1.1-0.3,2-0.9,2.6c-0.6,0.6-1.4,0.9-2.4,0.9C216.8,116.6,216,116.3,215.4,115.7z M219.2,114.9
		c0.3-0.4,0.5-1,0.5-1.8c0-0.8-0.2-1.4-0.5-1.8c-0.3-0.4-0.8-0.6-1.4-0.6c-0.6,0-1.1,0.2-1.4,0.6c-0.3,0.4-0.5,1-0.5,1.8
		c0,0.8,0.2,1.4,0.5,1.8c0.3,0.4,0.8,0.6,1.4,0.6C218.4,115.5,218.9,115.3,219.2,114.9z"/>
	<path class="st1" d="M228.6,116.2c0,0.2-0.1,0.2-0.3,0.2h-0.8c-0.2,0-0.2-0.1-0.2-0.2v-4c0-0.5-0.1-0.9-0.4-1.1s-0.6-0.4-1.1-0.4
		c-0.6,0-1,0.2-1.3,0.5c-0.3,0.3-0.5,0.8-0.5,1.3v3.7c0,0.2-0.1,0.2-0.2,0.2h-0.9c-0.2,0-0.2-0.1-0.2-0.2v-6.3
		c0-0.2,0.1-0.2,0.2-0.2h0.8c0.2,0,0.2,0.1,0.2,0.2l0,0.8c0.4-0.8,1.2-1.2,2.2-1.2c0.8,0,1.4,0.2,1.8,0.7c0.4,0.4,0.6,1,0.6,1.8
		V116.2z"/>
	<path class="st1" d="M236,116.2c0,0.2-0.1,0.2-0.3,0.2H235c-0.1,0-0.2-0.1-0.2-0.2l0-0.8c-0.5,0.8-1.3,1.2-2.4,1.2
		c-0.7,0-1.3-0.2-1.7-0.5c-0.4-0.3-0.6-0.8-0.6-1.4c0-0.4,0.1-0.7,0.2-1c0.2-0.3,0.4-0.5,0.6-0.7c0.3-0.2,0.6-0.3,1-0.4
		c0.4-0.1,0.8-0.2,1.3-0.2s0.9-0.1,1.5-0.1V112c0-0.5-0.1-0.8-0.4-1c-0.3-0.2-0.7-0.3-1.2-0.3c-0.7,0-1.4,0.1-2,0.4
		c-0.1,0.1-0.2,0-0.3-0.2l-0.2-0.6c0-0.1,0-0.2,0.1-0.3c0.7-0.3,1.6-0.5,2.5-0.5s1.7,0.2,2.1,0.6c0.5,0.4,0.7,1,0.7,1.8V116.2z
		 M234.7,113.3c-0.6,0-1,0-1.3,0.1c-0.3,0-0.7,0.1-1,0.2c-0.3,0.1-0.6,0.2-0.7,0.4c-0.2,0.2-0.2,0.4-0.2,0.7c0,0.3,0.1,0.5,0.3,0.7
		c0.2,0.2,0.5,0.3,1,0.3c0.7,0,1.2-0.2,1.5-0.5s0.5-0.7,0.5-1.2V113.3z"/>
	<path class="st1" d="M239.2,116.2c0,0.2-0.1,0.2-0.2,0.2h-0.9c-0.2,0-0.2-0.1-0.2-0.2v-8.7c0-0.2,0.1-0.2,0.2-0.2h0.9
		c0.2,0,0.2,0.1,0.2,0.2V116.2z"/>
	<path class="st1" d="M99.2,127.4c-0.2,0.4-0.5,0.7-0.9,0.9s-0.9,0.3-1.4,0.3c-0.9,0-1.7-0.3-2.2-0.9c-0.5-0.6-0.8-1.5-0.8-2.6
		s0.3-2,0.8-2.6c0.5-0.6,1.3-0.9,2.2-0.9c0.5,0,1,0.1,1.4,0.3s0.7,0.5,0.9,0.9v-3.2c0-0.2,0.1-0.2,0.3-0.2h0.8
		c0.2,0,0.2,0.1,0.2,0.2v8.7c0,0.2-0.1,0.2-0.2,0.2h-0.8c-0.2,0-0.2-0.1-0.2-0.2L99.2,127.4z M98.6,123.3c-0.3-0.4-0.8-0.6-1.5-0.6
		s-1.1,0.2-1.4,0.6c-0.3,0.4-0.5,1-0.5,1.8s0.2,1.5,0.5,1.8s0.8,0.6,1.4,0.6s1.1-0.2,1.5-0.6c0.3-0.4,0.5-1,0.5-1.8
		C99.2,124.3,99,123.7,98.6,123.3z"/>
	<path class="st1" d="M107.5,127.2c0.1-0.1,0.3,0,0.3,0.1l0.2,0.5c0,0.1,0,0.2-0.2,0.3c-0.6,0.3-1.4,0.5-2.2,0.5
		c-1.1,0-2-0.3-2.6-0.9c-0.6-0.6-0.9-1.5-0.9-2.6c0-1.1,0.3-2,0.9-2.6c0.6-0.6,1.4-0.9,2.3-0.9c1,0,1.7,0.3,2.2,0.9s0.8,1.4,0.8,2.3
		v0.6c0,0.2-0.1,0.2-0.3,0.2h-4.6c0.1,0.6,0.3,1.1,0.7,1.4s0.9,0.5,1.6,0.5C106.4,127.6,107,127.4,107.5,127.2z M103.4,124.7h3.7
		v-0.1c0-0.6-0.2-1.1-0.5-1.5c-0.3-0.4-0.7-0.5-1.3-0.5C104.2,122.6,103.5,123.3,103.4,124.7z"/>
	<path class="st1" d="M117.8,119.3c0.1,0,0.2,0,0.2,0.1s0.1,0.1,0.1,0.2l3.2,8.6c0,0.1,0,0.1,0,0.2c0,0.1-0.1,0.1-0.2,0.1h-1
		c-0.1,0-0.2-0.1-0.3-0.2l-0.7-2h-3.7l-0.7,2c-0.1,0.2-0.1,0.2-0.3,0.2h-1c-0.1,0-0.1,0-0.2-0.1c0-0.1,0-0.1,0-0.2l3.2-8.6
		c0-0.1,0.1-0.2,0.1-0.2s0.1-0.1,0.2-0.1H117.8z M118.7,125l-1.5-4.3h0l-1.5,4.3H118.7z"/>
	<path class="st1" d="M124,122.9v3.4c0,0.4,0.1,0.7,0.2,0.9s0.4,0.2,0.8,0.2c0,0,0.2,0,0.6-0.1c0.1,0,0.2,0.1,0.2,0.2l0.1,0.6
		c0,0.1,0,0.2-0.2,0.2c-0.3,0.1-0.6,0.2-1,0.2c-0.7,0-1.2-0.2-1.6-0.5s-0.5-0.9-0.5-1.6v-3.6h-0.8c-0.2,0-0.3-0.1-0.3-0.2V122
		c0-0.2,0.1-0.3,0.3-0.3h0.9v-1.6c0-0.2,0.1-0.2,0.2-0.2h0.8c0.2,0,0.3,0.1,0.3,0.2v1.6h1.6c0.2,0,0.3,0.1,0.3,0.3v0.6
		c0,0.2-0.1,0.2-0.3,0.2H124z"/>
	<path class="st1" d="M132.1,127.2c0.1-0.1,0.3,0,0.3,0.1l0.2,0.5c0,0.1,0,0.2-0.2,0.3c-0.6,0.3-1.4,0.5-2.2,0.5
		c-1.1,0-2-0.3-2.6-0.9c-0.6-0.6-0.9-1.5-0.9-2.6c0-1.1,0.3-2,0.9-2.6c0.6-0.6,1.4-0.9,2.3-0.9c1,0,1.7,0.3,2.2,0.9
		c0.5,0.6,0.8,1.4,0.8,2.3v0.6c0,0.2-0.1,0.2-0.3,0.2h-4.6c0.1,0.6,0.3,1.1,0.7,1.4c0.4,0.4,0.9,0.5,1.6,0.5
		C131,127.6,131.6,127.4,132.1,127.2z M128,124.7h3.7v-0.1c0-0.6-0.2-1.1-0.5-1.5c-0.3-0.4-0.7-0.5-1.3-0.5
		C128.8,122.6,128.1,123.3,128,124.7z"/>
	<path class="st1" d="M140.5,128.2c0,0.2-0.1,0.2-0.3,0.2h-0.8c-0.2,0-0.2-0.1-0.2-0.2v-4c0-0.5-0.1-0.9-0.4-1.1
		c-0.2-0.3-0.6-0.4-1.1-0.4c-0.6,0-1,0.2-1.3,0.5c-0.3,0.3-0.5,0.8-0.5,1.3v3.7c0,0.2-0.1,0.2-0.2,0.2h-0.9c-0.2,0-0.2-0.1-0.2-0.2
		v-6.3c0-0.2,0.1-0.2,0.2-0.2h0.8c0.2,0,0.2,0.1,0.2,0.2l0,0.8c0.4-0.8,1.2-1.2,2.2-1.2c0.8,0,1.4,0.2,1.8,0.7
		c0.4,0.4,0.6,1,0.6,1.8V128.2z"/>
	<path class="st1" d="M147.3,127.4c-0.2,0.4-0.5,0.7-0.9,0.9c-0.4,0.2-0.9,0.3-1.4,0.3c-0.9,0-1.7-0.3-2.2-0.9
		c-0.5-0.6-0.8-1.5-0.8-2.6s0.3-2,0.8-2.6c0.5-0.6,1.3-0.9,2.2-0.9c0.5,0,1,0.1,1.4,0.3s0.7,0.5,0.9,0.9v-3.2c0-0.2,0.1-0.2,0.3-0.2
		h0.8c0.2,0,0.2,0.1,0.2,0.2v8.7c0,0.2-0.1,0.2-0.2,0.2h-0.8c-0.2,0-0.2-0.1-0.2-0.2L147.3,127.4z M146.8,123.3
		c-0.3-0.4-0.8-0.6-1.5-0.6s-1.1,0.2-1.4,0.6c-0.3,0.4-0.5,1-0.5,1.8s0.2,1.5,0.5,1.8s0.8,0.6,1.4,0.6s1.1-0.2,1.5-0.6
		c0.3-0.4,0.5-1,0.5-1.8C147.3,124.3,147.1,123.7,146.8,123.3z"/>
	<path class="st1" d="M152,120.6c0,0.2-0.1,0.3-0.2,0.3h-0.9c-0.2,0-0.2-0.1-0.2-0.3v-1c0-0.2,0.1-0.2,0.2-0.2h0.9
		c0.2,0,0.2,0.1,0.2,0.2V120.6z M152,128.2c0,0.2-0.1,0.2-0.2,0.2h-0.9c-0.2,0-0.2-0.1-0.2-0.2v-6.3c0-0.2,0.1-0.2,0.2-0.2h0.9
		c0.2,0,0.2,0.1,0.2,0.2V128.2z"/>
	<path class="st1" d="M159.5,128.2c0,0.2-0.1,0.2-0.2,0.2h-0.8c-0.2,0-0.2-0.1-0.2-0.2v-4.1c0-0.5-0.1-0.8-0.3-1.1
		c-0.2-0.2-0.5-0.4-1-0.4c-0.5,0-0.9,0.2-1.2,0.5c-0.3,0.3-0.4,0.7-0.4,1.2v3.8c0,0.2-0.1,0.2-0.2,0.2h-0.8c-0.2,0-0.3-0.1-0.3-0.2
		v-6.3c0-0.2,0.1-0.2,0.3-0.2h0.8c0.2,0,0.3,0.1,0.3,0.2l0,0.8c0.1-0.3,0.4-0.6,0.7-0.8s0.8-0.3,1.4-0.3c1,0,1.7,0.4,2,1.2
		c0.4-0.8,1.2-1.2,2.3-1.2c0.7,0,1.3,0.2,1.7,0.6c0.4,0.4,0.6,1,0.6,1.8v4.3c0,0.2-0.1,0.2-0.2,0.2h-0.8c-0.2,0-0.2-0.1-0.2-0.2v-4
		c0-0.5-0.1-0.8-0.3-1.1c-0.2-0.2-0.5-0.4-1-0.4c-0.5,0-0.9,0.2-1.2,0.5c-0.3,0.3-0.5,0.7-0.5,1.1V128.2z"/>
	<path class="st1" d="M170.7,127.2c0.1-0.1,0.3,0,0.3,0.1l0.2,0.5c0,0.1,0,0.2-0.2,0.3c-0.6,0.3-1.4,0.5-2.2,0.5
		c-1.1,0-2-0.3-2.6-0.9c-0.6-0.6-0.9-1.5-0.9-2.6c0-1.1,0.3-2,0.9-2.6c0.6-0.6,1.4-0.9,2.3-0.9c1,0,1.7,0.3,2.2,0.9
		c0.5,0.6,0.8,1.4,0.8,2.3v0.6c0,0.2-0.1,0.2-0.3,0.2h-4.6c0.1,0.6,0.3,1.1,0.7,1.4c0.4,0.4,0.9,0.5,1.6,0.5
		C169.7,127.6,170.2,127.4,170.7,127.2z M166.7,124.7h3.7v-0.1c0-0.6-0.2-1.1-0.5-1.5c-0.3-0.4-0.7-0.5-1.3-0.5
		C167.4,122.6,166.8,123.3,166.7,124.7z"/>
	<path class="st1" d="M179.2,128.2c0,0.2-0.1,0.2-0.3,0.2H178c-0.2,0-0.2-0.1-0.2-0.2v-4c0-0.5-0.1-0.9-0.4-1.1
		c-0.2-0.3-0.6-0.4-1.1-0.4c-0.6,0-1,0.2-1.3,0.5c-0.3,0.3-0.5,0.8-0.5,1.3v3.7c0,0.2-0.1,0.2-0.2,0.2h-0.9c-0.2,0-0.2-0.1-0.2-0.2
		v-6.3c0-0.2,0.1-0.2,0.2-0.2h0.8c0.2,0,0.2,0.1,0.2,0.2l0,0.8c0.4-0.8,1.2-1.2,2.2-1.2c0.8,0,1.4,0.2,1.8,0.7
		c0.4,0.4,0.6,1,0.6,1.8V128.2z"/>
	<path class="st1" d="M182.6,122.9v3.4c0,0.4,0.1,0.7,0.2,0.9s0.4,0.2,0.8,0.2c0,0,0.2,0,0.6-0.1c0.1,0,0.2,0.1,0.2,0.2l0.1,0.6
		c0,0.1,0,0.2-0.2,0.2c-0.3,0.1-0.6,0.2-1,0.2c-0.7,0-1.2-0.2-1.6-0.5s-0.5-0.9-0.5-1.6v-3.6h-0.8c-0.2,0-0.3-0.1-0.3-0.2V122
		c0-0.2,0.1-0.3,0.3-0.3h0.9v-1.6c0-0.2,0.1-0.2,0.2-0.2h0.8c0.2,0,0.3,0.1,0.3,0.2v1.6h1.6c0.2,0,0.3,0.1,0.3,0.3v0.6
		c0,0.2-0.1,0.2-0.3,0.2H182.6z"/>
	<path class="st1" d="M186.2,127.7c-0.6-0.6-0.9-1.5-0.9-2.6c0-1.1,0.3-2,0.9-2.6c0.6-0.6,1.4-0.9,2.4-0.9c1,0,1.8,0.3,2.4,0.9
		c0.6,0.6,0.9,1.5,0.9,2.6c0,1.1-0.3,2-0.9,2.6c-0.6,0.6-1.4,0.9-2.4,0.9C187.6,128.6,186.8,128.3,186.2,127.7z M190.1,126.9
		c0.3-0.4,0.5-1,0.5-1.8c0-0.8-0.2-1.4-0.5-1.8c-0.3-0.4-0.8-0.6-1.4-0.6c-0.6,0-1.1,0.2-1.4,0.6c-0.3,0.4-0.5,1-0.5,1.8
		c0,0.8,0.2,1.4,0.5,1.8c0.3,0.4,0.8,0.6,1.4,0.6C189.3,127.5,189.7,127.3,190.1,126.9z"/>
	<path class="st1" d="M201.4,125.9l-2.5-4.1v6.4c0,0.2-0.1,0.3-0.3,0.3h-0.9c-0.2,0-0.3-0.1-0.3-0.3v-8.6c0-0.2,0.1-0.3,0.3-0.3h0.9
		c0.1,0,0.2,0.1,0.3,0.2l2.8,4.5l2.8-4.5c0.1-0.1,0.2-0.2,0.3-0.2h0.9c0.2,0,0.3,0.1,0.3,0.3v8.6c0,0.2-0.1,0.3-0.3,0.3h-0.9
		c-0.2,0-0.3-0.1-0.3-0.3v-6.4l-2.5,4.1c-0.1,0.1-0.1,0.2-0.3,0.2S201.5,126,201.4,125.9z"/>
	<path class="st1" d="M212.9,127.2c0.1-0.1,0.3,0,0.3,0.1l0.2,0.5c0,0.1,0,0.2-0.2,0.3c-0.6,0.3-1.4,0.5-2.2,0.5
		c-1.1,0-2-0.3-2.6-0.9c-0.6-0.6-0.9-1.5-0.9-2.6c0-1.1,0.3-2,0.9-2.6c0.6-0.6,1.4-0.9,2.3-0.9c1,0,1.7,0.3,2.2,0.9
		c0.5,0.6,0.8,1.4,0.8,2.3v0.6c0,0.2-0.1,0.2-0.3,0.2h-4.6c0.1,0.6,0.3,1.1,0.7,1.4c0.4,0.4,0.9,0.5,1.6,0.5
		C211.9,127.6,212.4,127.4,212.9,127.2z M208.9,124.7h3.7v-0.1c0-0.6-0.2-1.1-0.5-1.5c-0.3-0.4-0.7-0.5-1.3-0.5
		C209.6,122.6,209,123.3,208.9,124.7z M210.8,119.5c0.1-0.1,0.2-0.2,0.3-0.2h1.1c0.1,0,0.1,0,0.2,0.1c0,0.1,0,0.1-0.1,0.2l-1.2,1.1
		c-0.1,0.1-0.2,0.1-0.3,0.1h-0.5c-0.1,0-0.1,0-0.2-0.1s0-0.1,0-0.1L210.8,119.5z"/>
	<path class="st1" d="M220.3,127.4c-0.2,0.4-0.5,0.7-0.9,0.9c-0.4,0.2-0.9,0.3-1.4,0.3c-0.9,0-1.7-0.3-2.2-0.9
		c-0.5-0.6-0.8-1.5-0.8-2.6s0.3-2,0.8-2.6c0.5-0.6,1.3-0.9,2.2-0.9c0.5,0,1,0.1,1.4,0.3s0.7,0.5,0.9,0.9v-3.2c0-0.2,0.1-0.2,0.3-0.2
		h0.8c0.2,0,0.2,0.1,0.2,0.2v8.7c0,0.2-0.1,0.2-0.2,0.2h-0.8c-0.2,0-0.2-0.1-0.2-0.2L220.3,127.4z M219.8,123.3
		c-0.3-0.4-0.8-0.6-1.5-0.6s-1.1,0.2-1.4,0.6c-0.3,0.4-0.5,1-0.5,1.8s0.2,1.5,0.5,1.8s0.8,0.6,1.4,0.6s1.1-0.2,1.5-0.6
		c0.3-0.4,0.5-1,0.5-1.8C220.3,124.3,220.1,123.7,219.8,123.3z"/>
	<path class="st1" d="M224.9,120.6c0,0.2-0.1,0.3-0.2,0.3h-0.9c-0.2,0-0.2-0.1-0.2-0.3v-1c0-0.2,0.1-0.2,0.2-0.2h0.9
		c0.2,0,0.2,0.1,0.2,0.2V120.6z M224.9,128.2c0,0.2-0.1,0.2-0.2,0.2h-0.9c-0.2,0-0.2-0.1-0.2-0.2v-6.3c0-0.2,0.1-0.2,0.2-0.2h0.9
		c0.2,0,0.2,0.1,0.2,0.2V128.2z"/>
	<path class="st1" d="M227.4,122.5c0.6-0.6,1.4-0.9,2.4-0.9c0.8,0,1.4,0.1,1.9,0.4c0.1,0.1,0.2,0.2,0.2,0.3l-0.3,0.6
		c-0.1,0.1-0.2,0.2-0.4,0.1c-0.4-0.2-0.8-0.3-1.3-0.3c-0.7,0-1.2,0.2-1.5,0.6c-0.4,0.4-0.6,1-0.6,1.8c0,0.8,0.2,1.4,0.6,1.8
		c0.4,0.4,0.9,0.6,1.5,0.6c0.5,0,1-0.1,1.5-0.3c0.2-0.1,0.3,0,0.3,0.1l0.2,0.6c0,0.1,0,0.2-0.2,0.3c-0.2,0.1-0.5,0.2-0.8,0.3
		c-0.4,0.1-0.7,0.1-1.1,0.1c-1,0-1.9-0.3-2.5-0.9c-0.6-0.6-0.9-1.5-0.9-2.6C226.5,123.9,226.8,123.1,227.4,122.5z"/>
	<path class="st1" d="M233.8,127.7c-0.6-0.6-0.9-1.5-0.9-2.6c0-1.1,0.3-2,0.9-2.6c0.6-0.6,1.4-0.9,2.4-0.9s1.8,0.3,2.4,0.9
		c0.6,0.6,0.9,1.5,0.9,2.6c0,1.1-0.3,2-0.9,2.6c-0.6,0.6-1.4,0.9-2.4,0.9C235.2,128.6,234.4,128.3,233.8,127.7z M237.7,126.9
		c0.3-0.4,0.5-1,0.5-1.8c0-0.8-0.2-1.4-0.5-1.8c-0.3-0.4-0.8-0.6-1.4-0.6c-0.6,0-1.1,0.2-1.4,0.6s-0.5,1-0.5,1.8
		c0,0.8,0.2,1.4,0.5,1.8c0.3,0.4,0.8,0.6,1.4,0.6C236.9,127.5,237.3,127.3,237.7,126.9z"/>
</g>
</svg>
