<svg width="422" height="618" fill="none" xmlns="http://www.w3.org/2000/svg"><path d="M404.175 17.117a30.231 30.231 0 0 0-31.804 3.214C228.658 131.43 130.572 270.185 65.14 416.73V132.473a30.23 30.23 0 1 0-60.46 0v454.772a30.232 30.232 0 0 0 59.28 8.357c50.808-176.705 142.713-349.198 296.668-486.077v345.714a30.23 30.23 0 0 0 60.46 0V44.25a30.233 30.233 0 0 0-16.913-27.133Z" fill="#EDEAE5"/><path d="M34.887 69.774c19.267 0 34.887-15.62 34.887-34.887C69.774 15.619 54.154 0 34.887 0 15.619 0 0 15.62 0 34.887c0 19.267 15.62 34.887 34.887 34.887Z" fill="#7DDBD1"/></svg>